<mxfile host="app.diagrams.net" modified="2022-10-11T08:38:55.026Z" agent="5.0 (Windows NT 10.0; Win64; x64) AppleWebKit/537.36 (KHTML, like Gecko) Chrome/106.0.0.0 Safari/537.36 Edg/106.0.1370.37" etag="haIpNtyE-oh_proXXhtP" version="20.4.0" type="github">
  <diagram id="vEsajQPq7sN4_N_ij7nR" name="Page-1">
    <mxGraphModel dx="1017" dy="927" grid="1" gridSize="10" guides="1" tooltips="1" connect="1" arrows="1" fold="1" page="1" pageScale="1" pageWidth="850" pageHeight="1100" math="0" shadow="0">
      <root>
        <mxCell id="0" />
        <mxCell id="1" parent="0" />
        <mxCell id="xa-_HRpsTEDlTPyhuSHx-1" value="Auto" style="swimlane;fontStyle=1;align=center;verticalAlign=top;childLayout=stackLayout;horizontal=1;startSize=26;horizontalStack=0;resizeParent=1;resizeParentMax=0;resizeLast=0;collapsible=1;marginBottom=0;" vertex="1" parent="1">
          <mxGeometry x="70" y="40" width="250" height="34" as="geometry" />
        </mxCell>
        <mxCell id="xa-_HRpsTEDlTPyhuSHx-3" value="" style="line;strokeWidth=1;fillColor=none;align=left;verticalAlign=middle;spacingTop=-1;spacingLeft=3;spacingRight=3;rotatable=0;labelPosition=right;points=[];portConstraint=eastwest;strokeColor=inherit;" vertex="1" parent="xa-_HRpsTEDlTPyhuSHx-1">
          <mxGeometry y="26" width="250" height="8" as="geometry" />
        </mxCell>
        <mxCell id="xa-_HRpsTEDlTPyhuSHx-23" style="edgeStyle=orthogonalEdgeStyle;rounded=0;orthogonalLoop=1;jettySize=auto;html=1;exitX=0.5;exitY=0;exitDx=0;exitDy=0;entryX=0.5;entryY=1;entryDx=0;entryDy=0;endArrow=block;endFill=0;" edge="1" parent="1" source="xa-_HRpsTEDlTPyhuSHx-10" target="xa-_HRpsTEDlTPyhuSHx-1">
          <mxGeometry relative="1" as="geometry" />
        </mxCell>
        <mxCell id="xa-_HRpsTEDlTPyhuSHx-10" value="Linja-auto" style="swimlane;fontStyle=1;align=center;verticalAlign=top;childLayout=stackLayout;horizontal=1;startSize=26;horizontalStack=0;resizeParent=1;resizeParentMax=0;resizeLast=0;collapsible=1;marginBottom=0;" vertex="1" parent="1">
          <mxGeometry x="50" y="180" width="160" height="34" as="geometry" />
        </mxCell>
        <mxCell id="xa-_HRpsTEDlTPyhuSHx-12" value="" style="line;strokeWidth=1;fillColor=none;align=left;verticalAlign=middle;spacingTop=-1;spacingLeft=3;spacingRight=3;rotatable=0;labelPosition=right;points=[];portConstraint=eastwest;strokeColor=inherit;" vertex="1" parent="xa-_HRpsTEDlTPyhuSHx-10">
          <mxGeometry y="26" width="160" height="8" as="geometry" />
        </mxCell>
        <mxCell id="xa-_HRpsTEDlTPyhuSHx-22" style="edgeStyle=orthogonalEdgeStyle;rounded=0;orthogonalLoop=1;jettySize=auto;html=1;entryX=0.72;entryY=1;entryDx=0;entryDy=0;entryPerimeter=0;endArrow=block;endFill=0;" edge="1" parent="1" source="xa-_HRpsTEDlTPyhuSHx-18" target="xa-_HRpsTEDlTPyhuSHx-3">
          <mxGeometry relative="1" as="geometry" />
        </mxCell>
        <mxCell id="xa-_HRpsTEDlTPyhuSHx-18" value="Kuorma-auto" style="swimlane;fontStyle=1;align=center;verticalAlign=top;childLayout=stackLayout;horizontal=1;startSize=26;horizontalStack=0;resizeParent=1;resizeParentMax=0;resizeLast=0;collapsible=1;marginBottom=0;" vertex="1" parent="1">
          <mxGeometry x="280" y="180" width="160" height="34" as="geometry" />
        </mxCell>
        <mxCell id="xa-_HRpsTEDlTPyhuSHx-20" value="" style="line;strokeWidth=1;fillColor=none;align=left;verticalAlign=middle;spacingTop=-1;spacingLeft=3;spacingRight=3;rotatable=0;labelPosition=right;points=[];portConstraint=eastwest;strokeColor=inherit;" vertex="1" parent="xa-_HRpsTEDlTPyhuSHx-18">
          <mxGeometry y="26" width="160" height="8" as="geometry" />
        </mxCell>
        <mxCell id="xa-_HRpsTEDlTPyhuSHx-25" value="Varasto" style="swimlane;fontStyle=1;align=center;verticalAlign=top;childLayout=stackLayout;horizontal=1;startSize=26;horizontalStack=0;resizeParent=1;resizeParentMax=0;resizeLast=0;collapsible=1;marginBottom=0;" vertex="1" parent="1">
          <mxGeometry x="70" y="340" width="160" height="34" as="geometry" />
        </mxCell>
        <mxCell id="xa-_HRpsTEDlTPyhuSHx-27" value="" style="line;strokeWidth=1;fillColor=none;align=left;verticalAlign=middle;spacingTop=-1;spacingLeft=3;spacingRight=3;rotatable=0;labelPosition=right;points=[];portConstraint=eastwest;strokeColor=inherit;" vertex="1" parent="xa-_HRpsTEDlTPyhuSHx-25">
          <mxGeometry y="26" width="160" height="8" as="geometry" />
        </mxCell>
        <mxCell id="xa-_HRpsTEDlTPyhuSHx-33" style="edgeStyle=orthogonalEdgeStyle;rounded=0;orthogonalLoop=1;jettySize=auto;html=1;entryX=1;entryY=0.5;entryDx=0;entryDy=0;endArrow=diamondThin;endFill=1;endSize=10;" edge="1" parent="1" source="xa-_HRpsTEDlTPyhuSHx-29" target="xa-_HRpsTEDlTPyhuSHx-25">
          <mxGeometry relative="1" as="geometry" />
        </mxCell>
        <mxCell id="xa-_HRpsTEDlTPyhuSHx-29" value="Auto" style="swimlane;fontStyle=1;align=center;verticalAlign=top;childLayout=stackLayout;horizontal=1;startSize=26;horizontalStack=0;resizeParent=1;resizeParentMax=0;resizeLast=0;collapsible=1;marginBottom=0;" vertex="1" parent="1">
          <mxGeometry x="310" y="338" width="160" height="34" as="geometry" />
        </mxCell>
        <mxCell id="xa-_HRpsTEDlTPyhuSHx-31" value="" style="line;strokeWidth=1;fillColor=none;align=left;verticalAlign=middle;spacingTop=-1;spacingLeft=3;spacingRight=3;rotatable=0;labelPosition=right;points=[];portConstraint=eastwest;strokeColor=inherit;" vertex="1" parent="xa-_HRpsTEDlTPyhuSHx-29">
          <mxGeometry y="26" width="160" height="8" as="geometry" />
        </mxCell>
        <mxCell id="xa-_HRpsTEDlTPyhuSHx-34" value="1" style="text;html=1;align=center;verticalAlign=middle;resizable=0;points=[];autosize=1;strokeColor=none;fillColor=none;" vertex="1" parent="1">
          <mxGeometry x="225" y="315" width="30" height="30" as="geometry" />
        </mxCell>
        <mxCell id="xa-_HRpsTEDlTPyhuSHx-35" value="1..." style="text;html=1;align=center;verticalAlign=middle;resizable=0;points=[];autosize=1;strokeColor=none;fillColor=none;" vertex="1" parent="1">
          <mxGeometry x="280" y="315" width="40" height="30" as="geometry" />
        </mxCell>
        <mxCell id="xa-_HRpsTEDlTPyhuSHx-36" value="HenkilÃ¶" style="swimlane;fontStyle=1;align=center;verticalAlign=top;childLayout=stackLayout;horizontal=1;startSize=26;horizontalStack=0;resizeParent=1;resizeParentMax=0;resizeLast=0;collapsible=1;marginBottom=0;" vertex="1" parent="1">
          <mxGeometry x="80" y="440" width="160" height="34" as="geometry" />
        </mxCell>
        <mxCell id="xa-_HRpsTEDlTPyhuSHx-38" value="" style="line;strokeWidth=1;fillColor=none;align=left;verticalAlign=middle;spacingTop=-1;spacingLeft=3;spacingRight=3;rotatable=0;labelPosition=right;points=[];portConstraint=eastwest;strokeColor=inherit;" vertex="1" parent="xa-_HRpsTEDlTPyhuSHx-36">
          <mxGeometry y="26" width="160" height="8" as="geometry" />
        </mxCell>
        <mxCell id="xa-_HRpsTEDlTPyhuSHx-40" value="Pullo" style="swimlane;fontStyle=1;align=center;verticalAlign=top;childLayout=stackLayout;horizontal=1;startSize=26;horizontalStack=0;resizeParent=1;resizeParentMax=0;resizeLast=0;collapsible=1;marginBottom=0;" vertex="1" parent="1">
          <mxGeometry x="400" y="440" width="160" height="34" as="geometry" />
        </mxCell>
        <mxCell id="xa-_HRpsTEDlTPyhuSHx-42" value="" style="line;strokeWidth=1;fillColor=none;align=left;verticalAlign=middle;spacingTop=-1;spacingLeft=3;spacingRight=3;rotatable=0;labelPosition=right;points=[];portConstraint=eastwest;strokeColor=inherit;" vertex="1" parent="xa-_HRpsTEDlTPyhuSHx-40">
          <mxGeometry y="26" width="160" height="8" as="geometry" />
        </mxCell>
        <mxCell id="xa-_HRpsTEDlTPyhuSHx-44" style="edgeStyle=orthogonalEdgeStyle;rounded=0;orthogonalLoop=1;jettySize=auto;html=1;entryX=1;entryY=0.5;entryDx=0;entryDy=0;endArrow=none;endFill=0;endSize=10;exitX=0;exitY=0.5;exitDx=0;exitDy=0;" edge="1" parent="1" source="xa-_HRpsTEDlTPyhuSHx-40">
          <mxGeometry relative="1" as="geometry">
            <mxPoint x="320" y="456.5" as="sourcePoint" />
            <mxPoint x="240" y="456.5" as="targetPoint" />
          </mxGeometry>
        </mxCell>
        <mxCell id="xa-_HRpsTEDlTPyhuSHx-45" value="1" style="text;html=1;align=center;verticalAlign=middle;resizable=0;points=[];autosize=1;strokeColor=none;fillColor=none;" vertex="1" parent="1">
          <mxGeometry x="375" y="415" width="30" height="30" as="geometry" />
        </mxCell>
        <mxCell id="xa-_HRpsTEDlTPyhuSHx-46" value="1" style="text;html=1;align=center;verticalAlign=middle;resizable=0;points=[];autosize=1;strokeColor=none;fillColor=none;" vertex="1" parent="1">
          <mxGeometry x="225" y="415" width="30" height="30" as="geometry" />
        </mxCell>
        <mxCell id="xa-_HRpsTEDlTPyhuSHx-47" value="Omistaja" style="text;html=1;align=center;verticalAlign=middle;resizable=0;points=[];autosize=1;strokeColor=none;fillColor=none;" vertex="1" parent="1">
          <mxGeometry x="235" y="425" width="70" height="30" as="geometry" />
        </mxCell>
        <mxCell id="xa-_HRpsTEDlTPyhuSHx-62" style="edgeStyle=orthogonalEdgeStyle;rounded=0;orthogonalLoop=1;jettySize=auto;html=1;exitX=0.5;exitY=0;exitDx=0;exitDy=0;entryX=0.5;entryY=1;entryDx=0;entryDy=0;endArrow=block;endFill=0;endSize=10;" edge="1" parent="1" source="xa-_HRpsTEDlTPyhuSHx-48" target="xa-_HRpsTEDlTPyhuSHx-58">
          <mxGeometry relative="1" as="geometry" />
        </mxCell>
        <mxCell id="xa-_HRpsTEDlTPyhuSHx-48" value="Lemmikkikoira" style="swimlane;fontStyle=1;align=center;verticalAlign=top;childLayout=stackLayout;horizontal=1;startSize=26;horizontalStack=0;resizeParent=1;resizeParentMax=0;resizeLast=0;collapsible=1;marginBottom=0;" vertex="1" parent="1">
          <mxGeometry x="80" y="610" width="160" height="34" as="geometry" />
        </mxCell>
        <mxCell id="xa-_HRpsTEDlTPyhuSHx-50" value="" style="line;strokeWidth=1;fillColor=none;align=left;verticalAlign=middle;spacingTop=-1;spacingLeft=3;spacingRight=3;rotatable=0;labelPosition=right;points=[];portConstraint=eastwest;strokeColor=inherit;" vertex="1" parent="xa-_HRpsTEDlTPyhuSHx-48">
          <mxGeometry y="26" width="160" height="8" as="geometry" />
        </mxCell>
        <mxCell id="xa-_HRpsTEDlTPyhuSHx-63" style="edgeStyle=orthogonalEdgeStyle;rounded=0;orthogonalLoop=1;jettySize=auto;html=1;exitX=0.5;exitY=0;exitDx=0;exitDy=0;entryX=1;entryY=0.25;entryDx=0;entryDy=0;endArrow=block;endFill=0;endSize=10;" edge="1" parent="1" source="xa-_HRpsTEDlTPyhuSHx-52" target="xa-_HRpsTEDlTPyhuSHx-58">
          <mxGeometry relative="1" as="geometry" />
        </mxCell>
        <mxCell id="xa-_HRpsTEDlTPyhuSHx-52" value="Sisarukset" style="swimlane;fontStyle=1;align=center;verticalAlign=top;childLayout=stackLayout;horizontal=1;startSize=26;horizontalStack=0;resizeParent=1;resizeParentMax=0;resizeLast=0;collapsible=1;marginBottom=0;" vertex="1" parent="1">
          <mxGeometry x="390" y="620" width="160" height="34" as="geometry" />
        </mxCell>
        <mxCell id="xa-_HRpsTEDlTPyhuSHx-54" value="" style="line;strokeWidth=1;fillColor=none;align=left;verticalAlign=middle;spacingTop=-1;spacingLeft=3;spacingRight=3;rotatable=0;labelPosition=right;points=[];portConstraint=eastwest;strokeColor=inherit;" vertex="1" parent="xa-_HRpsTEDlTPyhuSHx-52">
          <mxGeometry y="26" width="160" height="8" as="geometry" />
        </mxCell>
        <mxCell id="xa-_HRpsTEDlTPyhuSHx-56" style="edgeStyle=orthogonalEdgeStyle;rounded=0;orthogonalLoop=1;jettySize=auto;html=1;entryX=0;entryY=0.5;entryDx=0;entryDy=0;endArrow=none;endFill=0;endSize=10;" edge="1" parent="1">
          <mxGeometry relative="1" as="geometry">
            <mxPoint x="240" y="627" as="sourcePoint" />
            <mxPoint x="390" y="617" as="targetPoint" />
          </mxGeometry>
        </mxCell>
        <mxCell id="xa-_HRpsTEDlTPyhuSHx-57" value="1..." style="text;html=1;align=center;verticalAlign=middle;resizable=0;points=[];autosize=1;strokeColor=none;fillColor=none;" vertex="1" parent="1">
          <mxGeometry x="360" y="590" width="40" height="30" as="geometry" />
        </mxCell>
        <mxCell id="xa-_HRpsTEDlTPyhuSHx-58" value="Emo" style="swimlane;fontStyle=1;align=center;verticalAlign=top;childLayout=stackLayout;horizontal=1;startSize=26;horizontalStack=0;resizeParent=1;resizeParentMax=0;resizeLast=0;collapsible=1;marginBottom=0;" vertex="1" parent="1">
          <mxGeometry x="80" y="550" width="160" height="34" as="geometry" />
        </mxCell>
        <mxCell id="xa-_HRpsTEDlTPyhuSHx-60" value="" style="line;strokeWidth=1;fillColor=none;align=left;verticalAlign=middle;spacingTop=-1;spacingLeft=3;spacingRight=3;rotatable=0;labelPosition=right;points=[];portConstraint=eastwest;strokeColor=inherit;" vertex="1" parent="xa-_HRpsTEDlTPyhuSHx-58">
          <mxGeometry y="26" width="160" height="8" as="geometry" />
        </mxCell>
        <mxCell id="xa-_HRpsTEDlTPyhuSHx-68" style="edgeStyle=orthogonalEdgeStyle;rounded=0;orthogonalLoop=1;jettySize=auto;html=1;entryX=0.5;entryY=1;entryDx=0;entryDy=0;endArrow=none;endFill=0;endSize=10;" edge="1" parent="1" source="xa-_HRpsTEDlTPyhuSHx-64" target="xa-_HRpsTEDlTPyhuSHx-48">
          <mxGeometry relative="1" as="geometry" />
        </mxCell>
        <mxCell id="xa-_HRpsTEDlTPyhuSHx-64" value="IsÃ¤" style="swimlane;fontStyle=1;align=center;verticalAlign=top;childLayout=stackLayout;horizontal=1;startSize=26;horizontalStack=0;resizeParent=1;resizeParentMax=0;resizeLast=0;collapsible=1;marginBottom=0;" vertex="1" parent="1">
          <mxGeometry x="150" y="700" width="160" height="34" as="geometry" />
        </mxCell>
        <mxCell id="xa-_HRpsTEDlTPyhuSHx-66" value="" style="line;strokeWidth=1;fillColor=none;align=left;verticalAlign=middle;spacingTop=-1;spacingLeft=3;spacingRight=3;rotatable=0;labelPosition=right;points=[];portConstraint=eastwest;strokeColor=inherit;" vertex="1" parent="xa-_HRpsTEDlTPyhuSHx-64">
          <mxGeometry y="26" width="160" height="8" as="geometry" />
        </mxCell>
        <mxCell id="xa-_HRpsTEDlTPyhuSHx-69" value="Omistaja" style="text;html=1;align=center;verticalAlign=middle;resizable=0;points=[];autosize=1;strokeColor=none;fillColor=none;" vertex="1" parent="1">
          <mxGeometry x="230" y="670" width="70" height="30" as="geometry" />
        </mxCell>
        <mxCell id="xa-_HRpsTEDlTPyhuSHx-91" style="edgeStyle=orthogonalEdgeStyle;rounded=0;orthogonalLoop=1;jettySize=auto;html=1;exitX=0.5;exitY=1;exitDx=0;exitDy=0;entryX=0.5;entryY=0;entryDx=0;entryDy=0;endArrow=none;endFill=0;endSize=10;startArrow=diamondThin;startFill=1;startSize=13;" edge="1" parent="1" source="xa-_HRpsTEDlTPyhuSHx-70" target="xa-_HRpsTEDlTPyhuSHx-78">
          <mxGeometry relative="1" as="geometry">
            <Array as="points">
              <mxPoint x="240" y="917" />
              <mxPoint x="335" y="917" />
            </Array>
          </mxGeometry>
        </mxCell>
        <mxCell id="xa-_HRpsTEDlTPyhuSHx-70" value="Bensa-automaatti" style="swimlane;fontStyle=1;align=center;verticalAlign=top;childLayout=stackLayout;horizontal=1;startSize=26;horizontalStack=0;resizeParent=1;resizeParentMax=0;resizeLast=0;collapsible=1;marginBottom=0;" vertex="1" parent="1">
          <mxGeometry x="160" y="830" width="160" height="34" as="geometry" />
        </mxCell>
        <mxCell id="xa-_HRpsTEDlTPyhuSHx-72" value="" style="line;strokeWidth=1;fillColor=none;align=left;verticalAlign=middle;spacingTop=-1;spacingLeft=3;spacingRight=3;rotatable=0;labelPosition=right;points=[];portConstraint=eastwest;strokeColor=inherit;" vertex="1" parent="xa-_HRpsTEDlTPyhuSHx-70">
          <mxGeometry y="26" width="160" height="8" as="geometry" />
        </mxCell>
        <mxCell id="xa-_HRpsTEDlTPyhuSHx-94" style="edgeStyle=orthogonalEdgeStyle;rounded=0;orthogonalLoop=1;jettySize=auto;html=1;exitX=0.5;exitY=0;exitDx=0;exitDy=0;startArrow=none;startFill=0;endArrow=none;endFill=0;endSize=10;" edge="1" parent="1" source="xa-_HRpsTEDlTPyhuSHx-74">
          <mxGeometry relative="1" as="geometry">
            <mxPoint x="240" y="900" as="targetPoint" />
          </mxGeometry>
        </mxCell>
        <mxCell id="xa-_HRpsTEDlTPyhuSHx-74" value="mittari&#xa;" style="swimlane;fontStyle=1;align=center;verticalAlign=top;childLayout=stackLayout;horizontal=1;startSize=26;horizontalStack=0;resizeParent=1;resizeParentMax=0;resizeLast=0;collapsible=1;marginBottom=0;" vertex="1" parent="1">
          <mxGeometry x="65" y="970" width="160" height="34" as="geometry" />
        </mxCell>
        <mxCell id="xa-_HRpsTEDlTPyhuSHx-76" value="" style="line;strokeWidth=1;fillColor=none;align=left;verticalAlign=middle;spacingTop=-1;spacingLeft=3;spacingRight=3;rotatable=0;labelPosition=right;points=[];portConstraint=eastwest;strokeColor=inherit;" vertex="1" parent="xa-_HRpsTEDlTPyhuSHx-74">
          <mxGeometry y="26" width="160" height="8" as="geometry" />
        </mxCell>
        <mxCell id="xa-_HRpsTEDlTPyhuSHx-78" value="mittari&#xa;" style="swimlane;fontStyle=1;align=center;verticalAlign=top;childLayout=stackLayout;horizontal=1;startSize=26;horizontalStack=0;resizeParent=1;resizeParentMax=0;resizeLast=0;collapsible=1;marginBottom=0;" vertex="1" parent="1">
          <mxGeometry x="255" y="970" width="160" height="34" as="geometry" />
        </mxCell>
        <mxCell id="xa-_HRpsTEDlTPyhuSHx-80" value="" style="line;strokeWidth=1;fillColor=none;align=left;verticalAlign=middle;spacingTop=-1;spacingLeft=3;spacingRight=3;rotatable=0;labelPosition=right;points=[];portConstraint=eastwest;strokeColor=inherit;" vertex="1" parent="xa-_HRpsTEDlTPyhuSHx-78">
          <mxGeometry y="26" width="160" height="8" as="geometry" />
        </mxCell>
        <mxCell id="xa-_HRpsTEDlTPyhuSHx-97" style="edgeStyle=orthogonalEdgeStyle;rounded=0;orthogonalLoop=1;jettySize=auto;html=1;startArrow=none;startFill=0;endArrow=none;endFill=0;endSize=10;" edge="1" parent="1" source="xa-_HRpsTEDlTPyhuSHx-82">
          <mxGeometry relative="1" as="geometry">
            <mxPoint x="510" y="920.0000000000002" as="targetPoint" />
          </mxGeometry>
        </mxCell>
        <mxCell id="xa-_HRpsTEDlTPyhuSHx-82" value="mittari&#xa;" style="swimlane;fontStyle=1;align=center;verticalAlign=top;childLayout=stackLayout;horizontal=1;startSize=26;horizontalStack=0;resizeParent=1;resizeParentMax=0;resizeLast=0;collapsible=1;marginBottom=0;" vertex="1" parent="1">
          <mxGeometry x="600" y="910" width="160" height="34" as="geometry" />
        </mxCell>
        <mxCell id="xa-_HRpsTEDlTPyhuSHx-84" value="" style="line;strokeWidth=1;fillColor=none;align=left;verticalAlign=middle;spacingTop=-1;spacingLeft=3;spacingRight=3;rotatable=0;labelPosition=right;points=[];portConstraint=eastwest;strokeColor=inherit;" vertex="1" parent="xa-_HRpsTEDlTPyhuSHx-82">
          <mxGeometry y="26" width="160" height="8" as="geometry" />
        </mxCell>
        <mxCell id="xa-_HRpsTEDlTPyhuSHx-95" style="edgeStyle=orthogonalEdgeStyle;rounded=0;orthogonalLoop=1;jettySize=auto;html=1;exitX=0.5;exitY=0;exitDx=0;exitDy=0;startArrow=none;startFill=0;endArrow=none;endFill=0;endSize=10;" edge="1" parent="1" source="xa-_HRpsTEDlTPyhuSHx-86">
          <mxGeometry relative="1" as="geometry">
            <mxPoint x="330" y="920" as="targetPoint" />
            <Array as="points">
              <mxPoint x="510" y="920" />
            </Array>
          </mxGeometry>
        </mxCell>
        <mxCell id="xa-_HRpsTEDlTPyhuSHx-86" value="mittari&#xa;" style="swimlane;fontStyle=1;align=center;verticalAlign=top;childLayout=stackLayout;horizontal=1;startSize=26;horizontalStack=0;resizeParent=1;resizeParentMax=0;resizeLast=0;collapsible=1;marginBottom=0;" vertex="1" parent="1">
          <mxGeometry x="430" y="960" width="160" height="34" as="geometry" />
        </mxCell>
        <mxCell id="xa-_HRpsTEDlTPyhuSHx-88" value="" style="line;strokeWidth=1;fillColor=none;align=left;verticalAlign=middle;spacingTop=-1;spacingLeft=3;spacingRight=3;rotatable=0;labelPosition=right;points=[];portConstraint=eastwest;strokeColor=inherit;" vertex="1" parent="xa-_HRpsTEDlTPyhuSHx-86">
          <mxGeometry y="26" width="160" height="8" as="geometry" />
        </mxCell>
      </root>
    </mxGraphModel>
  </diagram>
</mxfile>
